<svg xmlns="http://www.w3.org/2000/svg" viewBox="0 0 128 128" width="40" height="40">
  <defs>
    <linearGradient id="pg" x1="0%" y1="0%" x2="100%" y2="100%">
      <stop offset="0%" stop-color="#534BB1"/>
      <stop offset="100%" stop-color="#551BF9"/>
    </linearGradient>
  </defs>
  <rect width="128" height="128" rx="26" fill="url(#pg)"/>
  <path d="M108.7 64.4c0 .7-.1 1.3-.1 2h-7.9c0-28.4-20.3-43.7-44.5-43.7-23.1 0-42.8 16.2-44.4 40.5 10.2-13.4 27-20.8 44.5-20.8 26.7 0 47.6 17.3 47.6 44.4 0 2.2-.2 4.3-.5 6.4h-7.7c-1.3 6.4-5.9 10.9-12.3 10.9-6.9 0-11.8-5.3-12.2-12.4-3.7 7.4-10.6 12.4-19 12.4-12.1 0-20.1-9.6-20.1-22.6 0-19.9 14.3-34.7 33.3-34.7 6.6 0 11.8 2 15.4 5.6V48h15.4c-.7 5.4-1.4 11.7-1.4 18.1 0 8.5 3.2 13.4 8.3 13.4 5.3 0 9.1-5 9.1-15.1zM51 82.7c0 7.5 4 12.4 10.3 12.4 9.1 0 15.9-10 15.9-22.5 0-8.5-4.2-13.7-11.2-13.7C56.5 58.9 51 69 51 82.7z" fill="white"/>
  <circle cx="40.4" cy="64.4" r="4.8" fill="white"/>
  <circle cx="60.4" cy="61.4" r="4.8" fill="white"/>
</svg>
